IBM Plex Sans Var-Thin.ufo
<glyph name="A" format="2">
	<advance width="600"/>
	<unicode hex="0041"/>
	<anchor x="306" y="0" name="bottom"/>
	<anchor x="556" y="0" name="bottomright"/>
	<anchor x="299" y="698" name="top"/>
	<outline>
		<contour>
			<point x="568" y="0" type="line" name="hr00"/>
			<point x="315" y="698" type="line"/>
			<point x="285" y="698" type="line"/>
			<point x="32" y="0" type="line"/>
			<point x="55" y="0" type="line"/>
			<point x="140" y="234" type="line"/>
			<point x="460" y="234" type="line"/>
			<point x="545" y="0" type="line"/>
		</contour>
		<contour>
			<point x="453" y="253" type="line"/>
			<point x="147" y="253" type="line"/>
			<point x="244" y="524" type="line"/>
			<point x="298" y="675" type="line"/>
			<point x="301" y="675" type="line"/>
			<point x="356" y="524" type="line"/>
		</contour>
	</outline>
</glyph>
<glyph name="E" format="2">
	<advance width="561"/>
	<unicode hex="0045"/>
	<anchor x="299" y="0" name="bottom"/>
	<anchor x="487" y="0" name="bottomright"/>
	<anchor x="299" y="698" name="top"/>
	<outline>
		<contour>
			<point x="489" y="0" type="line" name="hr00"/>
			<point x="489" y="20" type="line"/>
			<point x="130" y="20" type="line"/>
			<point x="130" y="344" type="line"/>
			<point x="477" y="344" type="line"/>
			<point x="477" y="364" type="line"/>
			<point x="130" y="364" type="line"/>
			<point x="130" y="678" type="line"/>
			<point x="489" y="678" type="line"/>
			<point x="489" y="698" type="line"/>
			<point x="108" y="698" type="line"/>
			<point x="108" y="0" type="line"/>
		</contour>
	</outline>
</glyph>
<glyph name="H" format="2">
	<advance width="692"/>
	<unicode hex="0048"/>
	<anchor x="346" y="0" name="bottom"/>
	<anchor x="346" y="698" name="top"/>
	<outline>
		<contour>
			<point x="562" y="0" type="line" name="hr00"/>
			<point x="584" y="0" type="line"/>
			<point x="584" y="698" type="line"/>
			<point x="562" y="698" type="line"/>
			<point x="562" y="364" type="line"/>
			<point x="130" y="364" type="line"/>
			<point x="130" y="698" type="line"/>
			<point x="108" y="698" type="line"/>
			<point x="108" y="0" type="line"/>
			<point x="130" y="0" type="line"/>
			<point x="130" y="344" type="line"/>
			<point x="562" y="344" type="line"/>
		</contour>
	</outline>
</glyph>
<glyph name="J" format="2">
	<advance width="464"/>
	<unicode hex="004A"/>
	<anchor x="192" y="0" name="bottom"/>
	<anchor x="232" y="698" name="top"/>
	<outline>
		<contour>
			<point x="96" y="698" type="line" name="hr00"/>
			<point x="96" y="678" type="line"/>
			<point x="342" y="678" type="line"/>
			<point x="342" y="183" type="line" smooth="yes"/>
			<point x="342" y="71"/>
			<point x="292" y="8"/>
			<point x="192" y="8" type="curve" smooth="yes"/>
			<point x="115" y="8"/>
			<point x="60" y="56"/>
			<point x="41" y="119" type="curve"/>
			<point x="22" y="113" type="line"/>
			<point x="40" y="39"/>
			<point x="109" y="-12"/>
			<point x="192" y="-12" type="curve" smooth="yes"/>
			<point x="299" y="-12"/>
			<point x="364" y="55"/>
			<point x="364" y="183" type="curve" smooth="yes"/>
			<point x="364" y="698" type="line"/>
		</contour>
	</outline>
</glyph>
<glyph name="M" format="2">
	<advance width="796"/>
	<unicode hex="004D"/>
	<anchor x="398" y="0" name="bottom"/>
	<anchor x="398" y="698" name="top"/>
	<outline>
		<contour>
			<point x="108" y="0" type="line"/>
			<point x="129" y="0" type="line"/>
			<point x="129" y="504" type="line"/>
			<point x="129" y="673" type="line"/>
			<point x="132" y="673" type="line"/>
			<point x="235" y="504" type="line"/>
			<point x="398" y="236" type="line"/>
			<point x="561" y="504" type="line"/>
			<point x="664" y="673" type="line"/>
			<point x="667" y="673" type="line"/>
			<point x="667" y="504" type="line"/>
			<point x="667" y="0" type="line" name="hr00"/>
			<point x="688" y="0" type="line"/>
			<point x="688" y="698" type="line"/>
			<point x="655" y="698" type="line"/>
			<point x="497" y="438" type="line"/>
			<point x="400" y="278" type="line"/>
			<point x="397" y="278" type="line"/>
			<point x="299" y="438" type="line"/>
			<point x="141" y="698" type="line"/>
			<point x="108" y="698" type="line"/>
		</contour>
	</outline>
</glyph>
<glyph name="N" format="2">
	<advance width="692"/>
	<unicode hex="004E"/>
	<anchor x="346" y="0" name="bottom"/>
	<anchor x="346" y="698" name="top"/>
	<outline>
		<contour>
			<point x="552" y="0" type="line" name="hr00"/>
			<point x="584" y="0" type="line"/>
			<point x="584" y="698" type="line"/>
			<point x="563" y="698" type="line"/>
			<point x="563" y="197" type="line"/>
			<point x="563" y="27" type="line"/>
			<point x="560" y="27" type="line"/>
			<point x="454" y="197" type="line"/>
			<point x="140" y="698" type="line"/>
			<point x="108" y="698" type="line"/>
			<point x="108" y="0" type="line"/>
			<point x="129" y="0" type="line"/>
			<point x="129" y="501" type="line"/>
			<point x="129" y="671" type="line"/>
			<point x="132" y="671" type="line"/>
			<point x="239" y="501" type="line"/>
		</contour>
	</outline>
</glyph>
<glyph name="T" format="2">
	<advance width="560"/>
	<unicode hex="0054"/>
	<anchor x="280" y="0" name="bottom"/>
	<anchor x="280" y="698" name="top"/>
	<outline>
		<contour>
			<point x="543" y="678" type="line" name="hr00"/>
			<point x="543" y="698" type="line"/>
			<point x="17" y="698" type="line"/>
			<point x="17" y="678" type="line"/>
			<point x="269" y="678" type="line"/>
			<point x="269" y="0" type="line"/>
			<point x="291" y="0" type="line"/>
			<point x="291" y="678" type="line"/>
		</contour>
	</outline>
</glyph>
<glyph name="Z" format="2">
	<advance width="555"/>
	<unicode hex="005A"/>
	<anchor x="282" y="0" name="bottom"/>
	<anchor x="282" y="698" name="top"/>
	<outline>
		<contour>
			<point x="527" y="20" type="line" name="hr00"/>
			<point x="63" y="20" type="line"/>
			<point x="506" y="676" type="line"/>
			<point x="506" y="698" type="line"/>
			<point x="62" y="698" type="line"/>
			<point x="62" y="678" type="line"/>
			<point x="482" y="678" type="line"/>
			<point x="39" y="22" type="line"/>
			<point x="39" y="0" type="line"/>
			<point x="527" y="0" type="line"/>
		</contour>
	</outline>
</glyph>
<glyph name="grave" format="2">
	<advance width="600"/>
	<unicode hex="0060"/>
	<anchor x="300" y="540" name="_top"/>
	<outline>
		<contour>
			<point x="317" y="587" type="line" name="hr00"/>
			<point x="332" y="597" type="line"/>
			<point x="221" y="751" type="line"/>
			<point x="202" y="739" type="line"/>
		</contour>
	</outline>
</glyph>
<glyph name="y" format="2">
	<advance width="452"/>
	<unicode hex="0079"/>
	<anchor x="356" y="0" name="bottom"/>
	<anchor x="228" y="540" name="top"/>
	<outline>
		<contour>
			<point x="291" y="194" type="line"/>
			<point x="228" y="24" type="line" name="hr00"/>
			<point x="225" y="24" type="line"/>
			<point x="162" y="194" type="line"/>
			<point x="47" y="506" type="line"/>
			<point x="25" y="506" type="line"/>
			<point x="216" y="-7" type="line"/>
			<point x="150" y="-181" type="line"/>
			<point x="57" y="-181" type="line"/>
			<point x="57" y="-200" type="line"/>
			<point x="141" y="-200" type="line" smooth="yes"/>
			<point x="156" y="-200"/>
			<point x="167" y="-194"/>
			<point x="172" y="-181" type="curve" smooth="yes"/>
			<point x="427" y="506" type="line"/>
			<point x="406" y="506" type="line"/>
		</contour>
	</outline>
</glyph>
<glyph name="macron" format="2">
	<advance width="600"/>
	<unicode hex="00AF"/>
	<anchor x="300" y="540" name="_top"/>
	<outline>
		<contour>
			<point x="171" y="658" type="line" name="hr00"/>
			<point x="429" y="658" type="line"/>
			<point x="429" y="676" type="line"/>
			<point x="171" y="676" type="line"/>
		</contour>
	</outline>
</glyph>
<glyph name="acute" format="2">
	<advance width="600"/>
	<unicode hex="00B4"/>
	<anchor x="300" y="540" name="_top"/>
	<outline>
		<contour>
			<point x="397" y="739" type="line" name="hr00"/>
			<point x="378" y="751" type="line"/>
			<point x="267" y="597" type="line"/>
			<point x="282" y="587" type="line"/>
		</contour>
	</outline>
</glyph>
<glyph name="dotlessi" format="2">
	<advance width="231"/>
	<unicode hex="0131"/>
	<anchor x="115" y="540" name="top"/>
	<outline>
		<contour>
			<point x="126" y="0" type="line" name="hr00"/>
			<point x="126" y="506" type="line"/>
			<point x="105" y="506" type="line"/>
			<point x="105" y="0" type="line"/>
		</contour>
	</outline>
</glyph>
<glyph name="tonos" format="2">
	<advance width="600"/>
	<unicode hex="0384"/>
	<anchor x="304" y="540" name="_top"/>
	<outline>
		<contour>
			<point x="377" y="743" type="line"/>
			<point x="356" y="751" type="line"/>
			<point x="288" y="593" type="line"/>
			<point x="304" y="587" type="line"/>
		</contour>
	</outline>
</glyph>
<glyph name="Lambda" format="2">
	<advance width="590"/>
	<unicode hex="039B"/>
	<outline>
		<contour>
			<point x="280" y="698" type="line"/>
			<point x="32" y="0" type="line"/>
			<point x="55" y="0" type="line"/>
			<point x="186" y="371" type="line"/>
			<point x="293" y="675" type="line"/>
			<point x="296" y="675" type="line"/>
			<point x="404" y="371" type="line"/>
			<point x="535" y="0" type="line"/>
			<point x="558" y="0" type="line"/>
			<point x="310" y="698" type="line"/>
		</contour>
	</outline>
</glyph>
<glyph name="Xi" format="2">
	<advance width="555"/>
	<unicode hex="039E"/>
	<outline>
		<contour>
			<point x="72" y="678" type="line"/>
			<point x="483" y="678" type="line"/>
			<point x="483" y="698" type="line"/>
			<point x="72" y="698" type="line"/>
		</contour>
		<contour>
			<point x="104" y="344" type="line"/>
			<point x="451" y="344" type="line"/>
			<point x="451" y="364" type="line"/>
			<point x="104" y="364" type="line"/>
		</contour>
		<contour>
			<point x="72" y="0" type="line"/>
			<point x="483" y="0" type="line"/>
			<point x="483" y="20" type="line"/>
			<point x="72" y="20" type="line"/>
		</contour>
	</outline>
</glyph>
<glyph name="Sigma" format="2">
	<advance width="572"/>
	<unicode hex="03A3"/>
	<outline>
		<contour>
			<point x="504" y="0" type="line"/>
			<point x="504" y="20" type="line"/>
			<point x="74" y="20" type="line"/>
			<point x="352" y="354" type="line"/>
			<point x="80" y="678" type="line"/>
			<point x="504" y="678" type="line"/>
			<point x="504" y="698" type="line"/>
			<point x="56" y="698" type="line"/>
			<point x="56" y="676" type="line"/>
			<point x="326" y="354" type="line"/>
			<point x="50" y="22" type="line"/>
			<point x="50" y="0" type="line"/>
		</contour>
	</outline>
</glyph>
<glyph name="iota" format="2">
	<advance width="269"/>
	<unicode hex="03B9"/>
	<anchor x="124" y="540" name="top"/>
	<outline>
		<contour>
			<point x="239" y="19" type="line"/>
			<point x="126" y="19" type="line"/>
			<point x="126" y="506" type="line"/>
			<point x="105" y="506" type="line"/>
			<point x="105" y="29" type="line" smooth="yes"/>
			<point x="105" y="9"/>
			<point x="114" y="0"/>
			<point x="134" y="0" type="curve" smooth="yes"/>
			<point x="239" y="0" type="line"/>
		</contour>
	</outline>
</glyph>
<glyph name="upsilon" format="2">
	<advance width="546"/>
	<unicode hex="03C5"/>
	<anchor x="273" y="540" name="top"/>
	<outline>
		<contour>
			<point x="116" y="506" type="line"/>
			<point x="95" y="506" type="line"/>
			<point x="95" y="229" type="line" smooth="yes"/>
			<point x="95" y="53"/>
			<point x="149" y="-12"/>
			<point x="273" y="-12" type="curve" smooth="yes"/>
			<point x="397" y="-12"/>
			<point x="451" y="53"/>
			<point x="451" y="229" type="curve" smooth="yes"/>
			<point x="451" y="506" type="line"/>
			<point x="430" y="506" type="line"/>
			<point x="430" y="215" type="line" smooth="yes"/>
			<point x="430" y="57"/>
			<point x="377" y="7"/>
			<point x="273" y="7" type="curve" smooth="yes"/>
			<point x="169" y="7"/>
			<point x="116" y="57"/>
			<point x="116" y="215" type="curve" smooth="yes"/>
		</contour>
	</outline>
</glyph>
<glyph name="uni0413" format="2">
	<advance width="506"/>
	<unicode hex="0413"/>
	<anchor x="285" y="698" name="top"/>
	<outline>
		<contour>
			<point x="108" y="0" type="line"/>
			<point x="130" y="0" type="line"/>
			<point x="130" y="678" type="line"/>
			<point x="462" y="678" type="line"/>
			<point x="462" y="698" type="line"/>
			<point x="108" y="698" type="line"/>
		</contour>
	</outline>
</glyph>
<glyph name="uni0418" format="2">
	<advance width="692"/>
	<unicode hex="0418"/>
	<anchor x="344" y="698" name="top"/>
	<outline>
		<contour>
			<point x="108" y="0" type="line"/>
			<point x="127" y="0" type="line"/>
			<point x="523" y="598" type="line"/>
			<point x="564" y="671" type="line"/>
			<point x="567" y="671" type="line"/>
			<point x="563" y="597" type="line"/>
			<point x="563" y="0" type="line"/>
			<point x="584" y="0" type="line"/>
			<point x="584" y="698" type="line"/>
			<point x="565" y="698" type="line"/>
			<point x="169" y="100" type="line"/>
			<point x="128" y="27" type="line"/>
			<point x="125" y="27" type="line"/>
			<point x="129" y="101" type="line"/>
			<point x="129" y="698" type="line"/>
			<point x="108" y="698" type="line"/>
		</contour>
	</outline>
</glyph>
<glyph name="uni0429" format="2">
	<advance width="934"/>
	<unicode hex="0429"/>
	<outline>
		<contour>
			<point x="862" y="-150" type="line"/>
			<point x="884" y="-150" type="line"/>
			<point x="884" y="20" type="line"/>
			<point x="796" y="20" type="line"/>
			<point x="796" y="698" type="line"/>
			<point x="774" y="698" type="line"/>
			<point x="774" y="20" type="line"/>
			<point x="463" y="20" type="line"/>
			<point x="463" y="698" type="line"/>
			<point x="441" y="698" type="line"/>
			<point x="441" y="20" type="line"/>
			<point x="130" y="20" type="line"/>
			<point x="130" y="698" type="line"/>
			<point x="108" y="698" type="line"/>
			<point x="108" y="0" type="line"/>
			<point x="862" y="0" type="line"/>
		</contour>
	</outline>
</glyph>
<glyph name="uni0438" format="2">
	<advance width="576"/>
	<unicode hex="0438"/>
	<anchor x="286" y="0" name="bottom"/>
	<anchor x="286" y="540" name="top"/>
	<outline>
		<contour>
			<point x="105" y="0" type="line"/>
			<point x="124" y="0" type="line"/>
			<point x="411" y="413" type="line"/>
			<point x="449" y="474" type="line"/>
			<point x="453" y="474" type="line"/>
			<point x="450" y="405" type="line"/>
			<point x="450" y="0" type="line"/>
			<point x="471" y="0" type="line"/>
			<point x="471" y="506" type="line"/>
			<point x="452" y="506" type="line"/>
			<point x="165" y="93" type="line"/>
			<point x="127" y="32" type="line"/>
			<point x="123" y="32" type="line"/>
			<point x="126" y="101" type="line"/>
			<point x="126" y="506" type="line"/>
			<point x="105" y="506" type="line"/>
		</contour>
	</outline>
</glyph>
<glyph name="uni0442" format="2">
	<advance width="479"/>
	<unicode hex="0442"/>
	<outline>
		<contour>
			<point x="229" y="0" type="line"/>
			<point x="250" y="0" type="line"/>
			<point x="250" y="487" type="line"/>
			<point x="444" y="487" type="line"/>
			<point x="444" y="506" type="line"/>
			<point x="35" y="506" type="line"/>
			<point x="35" y="487" type="line"/>
			<point x="229" y="487" type="line"/>
		</contour>
	</outline>
</glyph>
<glyph name="uni0448" format="2">
	<advance width="779"/>
	<unicode hex="0448"/>
	<outline>
		<contour>
			<point x="105" y="0" type="line"/>
			<point x="674" y="0" type="line"/>
			<point x="674" y="506" type="line"/>
			<point x="653" y="506" type="line"/>
			<point x="653" y="19" type="line"/>
			<point x="400" y="19" type="line"/>
			<point x="400" y="506" type="line"/>
			<point x="379" y="506" type="line"/>
			<point x="379" y="19" type="line"/>
			<point x="126" y="19" type="line"/>
			<point x="126" y="506" type="line"/>
			<point x="105" y="506" type="line"/>
		</contour>
	</outline>
</glyph>
<glyph name="uni0449" format="2">
	<advance width="794"/>
	<unicode hex="0449"/>
	<outline>
		<contour>
			<point x="728" y="-140" type="line"/>
			<point x="749" y="-140" type="line"/>
			<point x="749" y="19" type="line"/>
			<point x="674" y="19" type="line"/>
			<point x="674" y="506" type="line"/>
			<point x="653" y="506" type="line"/>
			<point x="653" y="19" type="line"/>
			<point x="400" y="19" type="line"/>
			<point x="400" y="506" type="line"/>
			<point x="379" y="506" type="line"/>
			<point x="379" y="19" type="line"/>
			<point x="126" y="19" type="line"/>
			<point x="126" y="506" type="line"/>
			<point x="105" y="506" type="line"/>
			<point x="105" y="0" type="line"/>
			<point x="728" y="0" type="line"/>
		</contour>
	</outline>
</glyph>
<glyph name="uni0475" format="2">
	<advance width="480"/>
	<unicode hex="0475"/>
	<outline>
		<contour>
			<point x="239" y="0" type="line"/>
			<point x="395" y="487" type="line"/>
			<point x="471" y="487" type="line"/>
			<point x="471" y="506" type="line"/>
			<point x="404" y="506" type="line" smooth="yes"/>
			<point x="386" y="506"/>
			<point x="378" y="498"/>
			<point x="373" y="483" type="curve" smooth="yes"/>
			<point x="296" y="239" type="line"/>
			<point x="228" y="24" type="line"/>
			<point x="225" y="24" type="line"/>
			<point x="146" y="238" type="line"/>
			<point x="47" y="506" type="line"/>
			<point x="25" y="506" type="line"/>
			<point x="213" y="0" type="line"/>
		</contour>
	</outline>
</glyph>
<glyph name="uni0490" format="2">
	<advance width="506"/>
	<unicode hex="0490"/>
	<outline>
		<contour>
			<point x="108" y="0" type="line"/>
			<point x="130" y="0" type="line"/>
			<point x="130" y="678" type="line"/>
			<point x="462" y="678" type="line"/>
			<point x="462" y="848" type="line"/>
			<point x="440" y="848" type="line"/>
			<point x="440" y="698" type="line"/>
			<point x="108" y="698" type="line"/>
		</contour>
	</outline>
</glyph>
<glyph name="uni0491" format="2">
	<advance width="442"/>
	<unicode hex="0491"/>
	<outline>
		<contour>
			<point x="105" y="0" type="line"/>
			<point x="126" y="0" type="line"/>
			<point x="126" y="487" type="line"/>
			<point x="402" y="487" type="line"/>
			<point x="402" y="646" type="line"/>
			<point x="381" y="646" type="line"/>
			<point x="381" y="506" type="line"/>
			<point x="105" y="506" type="line"/>
		</contour>
	</outline>
</glyph>
<glyph name="uni0492" format="2">
	<advance width="526"/>
	<unicode hex="0492"/>
	<outline>
		<contour>
			<point x="128" y="0" type="line"/>
			<point x="150" y="0" type="line"/>
			<point x="150" y="365" type="line"/>
			<point x="370" y="365" type="line"/>
			<point x="370" y="384" type="line"/>
			<point x="150" y="384" type="line"/>
			<point x="150" y="678" type="line"/>
			<point x="482" y="678" type="line"/>
			<point x="482" y="698" type="line"/>
			<point x="128" y="698" type="line"/>
			<point x="128" y="384" type="line"/>
			<point x="26" y="384" type="line"/>
			<point x="26" y="365" type="line"/>
			<point x="128" y="365" type="line"/>
		</contour>
	</outline>
</glyph>
<glyph name="uni0493" format="2">
	<advance width="451"/>
	<unicode hex="0493"/>
	<outline>
		<contour>
			<point x="114" y="0" type="line"/>
			<point x="135" y="0" type="line"/>
			<point x="135" y="257" type="line"/>
			<point x="321" y="257" type="line"/>
			<point x="321" y="275" type="line"/>
			<point x="135" y="275" type="line"/>
			<point x="135" y="487" type="line"/>
			<point x="411" y="487" type="line"/>
			<point x="411" y="506" type="line"/>
			<point x="114" y="506" type="line"/>
			<point x="114" y="275" type="line"/>
			<point x="30" y="275" type="line"/>
			<point x="30" y="257" type="line"/>
			<point x="114" y="257" type="line"/>
		</contour>
	</outline>
</glyph>
<glyph name="uni0524" format="2">
	<advance width="708"/>
	<unicode hex="0524"/>
	<outline>
		<contour>
			<point x="108" y="0" type="line"/>
			<point x="130" y="0" type="line"/>
			<point x="130" y="678" type="line"/>
			<point x="548" y="678" type="line"/>
			<point x="548" y="0" type="line"/>
			<point x="636" y="0" type="line"/>
			<point x="636" y="-150" type="line"/>
			<point x="658" y="-150" type="line"/>
			<point x="658" y="20" type="line"/>
			<point x="570" y="20" type="line"/>
			<point x="570" y="698" type="line"/>
			<point x="108" y="698" type="line"/>
		</contour>
	</outline>
</glyph>
<glyph name="uni0525" format="2">
	<advance width="581"/>
	<unicode hex="0525"/>
	<outline>
		<contour>
			<point x="105" y="0" type="line"/>
			<point x="126" y="0" type="line"/>
			<point x="126" y="487" type="line"/>
			<point x="440" y="487" type="line"/>
			<point x="440" y="0" type="line"/>
			<point x="515" y="0" type="line"/>
			<point x="515" y="-140" type="line"/>
			<point x="536" y="-140" type="line"/>
			<point x="536" y="19" type="line"/>
			<point x="461" y="19" type="line"/>
			<point x="461" y="506" type="line"/>
			<point x="105" y="506" type="line"/>
		</contour>
	</outline>
</glyph>
<glyph name="Delta" format="2">
	<advance width="600"/>
	<unicode hex="2206"/>
	<outline>
		<contour>
			<point x="39" y="0" type="line" name="hr00"/>
			<point x="561" y="0" type="line"/>
			<point x="561" y="19" type="line"/>
			<point x="315" y="698" type="line"/>
			<point x="285" y="698" type="line"/>
			<point x="39" y="19" type="line"/>
		</contour>
		<contour>
			<point x="538" y="19" type="line"/>
			<point x="62" y="19" type="line"/>
			<point x="221" y="461" type="line"/>
			<point x="298" y="675" type="line"/>
			<point x="301" y="675" type="line"/>
			<point x="379" y="461" type="line"/>
		</contour>
	</outline>
</glyph>
<glyph name="grave.case" format="2">
	<advance width="600"/>
	<anchor x="300" y="698" name="_top"/>
	<outline>
		<contour>
			<point x="317" y="767" type="line" name="hr00"/>
			<point x="332" y="777" type="line"/>
			<point x="221" y="931" type="line"/>
			<point x="202" y="919" type="line"/>
		</contour>
	</outline>
</glyph>
<glyph name="macron.case" format="2">
	<advance width="600"/>
	<anchor x="300" y="698" name="_top"/>
	<outline>
		<contour>
			<point x="171" y="838" type="line" name="hr00"/>
			<point x="429" y="838" type="line"/>
			<point x="429" y="856" type="line"/>
			<point x="171" y="856" type="line"/>
		</contour>
	</outline>
</glyph>
<glyph name="tonos.case" format="2">
	<advance width="600"/>
	<anchor x="304" y="540" name="_topleft"/>
	<outline>
		<contour>
			<point x="377" y="743" type="line"/>
			<point x="356" y="751" type="line"/>
			<point x="288" y="593" type="line"/>
			<point x="304" y="587" type="line"/>
		</contour>
	</outline>
</glyph>
<glyph name="uni041A" format="2">
	<advance width="616"/>
	<anchor x="306" y="698" name="top"/>
	<outline>
		<contour>
			<point x="108" y="0" type="line"/>
			<point x="130" y="0" type="line"/>
			<point x="130" y="344" type="line"/>
			<point x="291" y="344" type="line"/>
			<point x="487" y="21" type="line" smooth="yes"/>
			<point x="497" y="5"/>
			<point x="506" y="0"/>
			<point x="522" y="0" type="curve" smooth="yes"/>
			<point x="572" y="0" type="line"/>
			<point x="572" y="20" type="line"/>
			<point x="513" y="20" type="line"/>
			<point x="328" y="325" type="line" smooth="yes"/>
			<point x="316" y="345"/>
			<point x="306" y="350"/>
			<point x="294" y="352" type="curve"/>
			<point x="294" y="354" type="line"/>
			<point x="306" y="356"/>
			<point x="315" y="364"/>
			<point x="329" y="387" type="curve" smooth="yes"/>
			<point x="501" y="678" type="line"/>
			<point x="560" y="678" type="line"/>
			<point x="560" y="698" type="line"/>
			<point x="511" y="698" type="line" smooth="yes"/>
			<point x="495" y="698"/>
			<point x="486" y="694"/>
			<point x="476" y="677" type="curve" smooth="yes"/>
			<point x="291" y="364" type="line"/>
			<point x="130" y="364" type="line"/>
			<point x="130" y="698" type="line"/>
			<point x="108" y="698" type="line"/>
		</contour>
	</outline>
</glyph>
<glyph name="uni041F" format="2">
	<advance width="678"/>
	<outline>
		<contour>
			<point x="108" y="0" type="line"/>
			<point x="130" y="0" type="line"/>
			<point x="130" y="678" type="line"/>
			<point x="548" y="678" type="line"/>
			<point x="548" y="0" type="line"/>
			<point x="570" y="0" type="line"/>
			<point x="570" y="698" type="line"/>
			<point x="108" y="698" type="line"/>
		</contour>
	</outline>
</glyph>
<glyph name="uni042E" format="2">
	<advance width="905"/>
	<outline>
		<contour>
			<point x="569" y="-12" type="curve" smooth="yes"/>
			<point x="739" y="-12"/>
			<point x="835" y="109"/>
			<point x="835" y="349" type="curve" smooth="yes"/>
			<point x="835" y="589"/>
			<point x="739" y="710"/>
			<point x="569" y="710" type="curve" smooth="yes"/>
			<point x="403" y="710"/>
			<point x="307" y="594"/>
			<point x="303" y="364" type="curve"/>
			<point x="130" y="364" type="line"/>
			<point x="130" y="698" type="line"/>
			<point x="108" y="698" type="line"/>
			<point x="108" y="0" type="line"/>
			<point x="130" y="0" type="line"/>
			<point x="130" y="344" type="line"/>
			<point x="303" y="344" type="line"/>
			<point x="303" y="109"/>
			<point x="399" y="-12"/>
		</contour>
		<contour>
			<point x="569" y="8" type="curve" smooth="yes"/>
			<point x="419" y="8"/>
			<point x="327" y="117"/>
			<point x="327" y="328" type="curve" smooth="yes"/>
			<point x="327" y="370" type="line" smooth="yes"/>
			<point x="327" y="581"/>
			<point x="419" y="690"/>
			<point x="569" y="690" type="curve" smooth="yes"/>
			<point x="719" y="690"/>
			<point x="811" y="581"/>
			<point x="811" y="370" type="curve" smooth="yes"/>
			<point x="811" y="328" type="line" smooth="yes"/>
			<point x="811" y="117"/>
			<point x="719" y="8"/>
		</contour>
	</outline>
</glyph>
<glyph name="uni043F" format="2">
	<advance width="566"/>
	<anchor x="283" y="0" name="bottom"/>
	<anchor x="283" y="506" name="top"/>
	<outline>
		<contour>
			<point x="105" y="0" type="line"/>
			<point x="126" y="0" type="line"/>
			<point x="126" y="487" type="line"/>
			<point x="440" y="487" type="line"/>
			<point x="440" y="0" type="line"/>
			<point x="461" y="0" type="line"/>
			<point x="461" y="506" type="line"/>
			<point x="105" y="506" type="line"/>
		</contour>
	</outline>
</glyph>
<glyph name="uni044B" format="2">
	<advance width="672"/>
	<anchor x="336" y="540" name="top"/>
	<outline>
		<contour>
			<point x="105" y="0" type="line"/>
			<point x="277" y="0" type="line" smooth="yes"/>
			<point x="379" y="0"/>
			<point x="433" y="58"/>
			<point x="433" y="147" type="curve" smooth="yes"/>
			<point x="433" y="235"/>
			<point x="379" y="293"/>
			<point x="277" y="293" type="curve" smooth="yes"/>
			<point x="126" y="293" type="line"/>
			<point x="126" y="506" type="line"/>
			<point x="105" y="506" type="line"/>
		</contour>
		<contour>
			<point x="126" y="19" type="line"/>
			<point x="126" y="274" type="line"/>
			<point x="277" y="274" type="line" smooth="yes"/>
			<point x="368" y="274"/>
			<point x="410" y="220"/>
			<point x="410" y="160" type="curve" smooth="yes"/>
			<point x="410" y="133" type="line" smooth="yes"/>
			<point x="410" y="73"/>
			<point x="368" y="19"/>
			<point x="277" y="19" type="curve" smooth="yes"/>
		</contour>
		<contour>
			<point x="546" y="0" type="line"/>
			<point x="567" y="0" type="line"/>
			<point x="567" y="506" type="line"/>
			<point x="546" y="506" type="line"/>
		</contour>
	</outline>
</glyph>
<glyph name="uni04A2" format="2">
	<advance width="722"/>
	<outline>
		<contour>
			<point x="650" y="-150" type="line"/>
			<point x="672" y="-150" type="line"/>
			<point x="672" y="20" type="line"/>
			<point x="584" y="20" type="line"/>
			<point x="584" y="698" type="line"/>
			<point x="562" y="698" type="line"/>
			<point x="562" y="364" type="line"/>
			<point x="130" y="364" type="line"/>
			<point x="130" y="698" type="line"/>
			<point x="108" y="698" type="line"/>
			<point x="108" y="0" type="line"/>
			<point x="130" y="0" type="line"/>
			<point x="130" y="344" type="line"/>
			<point x="562" y="344" type="line"/>
			<point x="562" y="0" type="line"/>
			<point x="650" y="0" type="line"/>
		</contour>
	</outline>
</glyph>
<glyph name="uni04A4" format="2">
	<advance width="935"/>
	<outline>
		<contour>
			<point x="108" y="0" type="line"/>
			<point x="130" y="0" type="line"/>
			<point x="130" y="344" type="line"/>
			<point x="537" y="344" type="line"/>
			<point x="537" y="0" type="line"/>
			<point x="559" y="0" type="line"/>
			<point x="559" y="678" type="line"/>
			<point x="891" y="678" type="line"/>
			<point x="891" y="698" type="line"/>
			<point x="537" y="698" type="line"/>
			<point x="537" y="364" type="line"/>
			<point x="130" y="364" type="line"/>
			<point x="130" y="698" type="line"/>
			<point x="108" y="698" type="line"/>
		</contour>
	</outline>
</glyph>
<glyph name="uni04A5" format="2">
	<advance width="762"/>
	<outline>
		<contour>
			<point x="105" y="0" type="line"/>
			<point x="126" y="0" type="line"/>
			<point x="126" y="265" type="line"/>
			<point x="420" y="265" type="line"/>
			<point x="420" y="0" type="line"/>
			<point x="441" y="0" type="line"/>
			<point x="441" y="487" type="line"/>
			<point x="717" y="487" type="line"/>
			<point x="717" y="506" type="line"/>
			<point x="420" y="506" type="line"/>
			<point x="420" y="284" type="line"/>
			<point x="126" y="284" type="line"/>
			<point x="126" y="506" type="line"/>
			<point x="105" y="506" type="line"/>
		</contour>
	</outline>
</glyph>
<glyph name="uni04B0" format="2">
	<advance width="546"/>
	<outline>
		<contour>
			<point x="262" y="0" type="line"/>
			<point x="284" y="0" type="line"/>
			<point x="284" y="274" type="line"/>
			<point x="465" y="274" type="line"/>
			<point x="465" y="294" type="line"/>
			<point x="284" y="294" type="line"/>
			<point x="525" y="698" type="line"/>
			<point x="501" y="698" type="line"/>
			<point x="275" y="320" type="line"/>
			<point x="272" y="320" type="line"/>
			<point x="46" y="698" type="line"/>
			<point x="21" y="698" type="line"/>
			<point x="262" y="294" type="line"/>
			<point x="81" y="294" type="line"/>
			<point x="81" y="274" type="line"/>
			<point x="262" y="274" type="line"/>
		</contour>
	</outline>
</glyph>
<glyph name="uni04B2" format="2">
	<advance width="590"/>
	<outline>
		<contour>
			<point x="566" y="-150" type="line"/>
			<point x="588" y="-150" type="line"/>
			<point x="588" y="20" type="line"/>
			<point x="517" y="20" type="line"/>
			<point x="293" y="357" type="line"/>
			<point x="521" y="698" type="line"/>
			<point x="495" y="698" type="line"/>
			<point x="280" y="376" type="line"/>
			<point x="278" y="376" type="line"/>
			<point x="63" y="698" type="line"/>
			<point x="37" y="698" type="line"/>
			<point x="266" y="354" type="line"/>
			<point x="28" y="0" type="line"/>
			<point x="54" y="0" type="line"/>
			<point x="279" y="335" type="line"/>
			<point x="281" y="335" type="line"/>
			<point x="504" y="0" type="line"/>
			<point x="566" y="0" type="line"/>
		</contour>
	</outline>
</glyph>
<glyph name="uni04B3" format="2">
	<advance width="489"/>
	<outline>
		<contour>
			<point x="468" y="-140" type="line"/>
			<point x="489" y="-140" type="line"/>
			<point x="489" y="19" type="line"/>
			<point x="422" y="19" type="line"/>
			<point x="248" y="255" type="line"/>
			<point x="431" y="506" type="line"/>
			<point x="407" y="506" type="line"/>
			<point x="236" y="271" type="line"/>
			<point x="234" y="271" type="line"/>
			<point x="63" y="506" type="line"/>
			<point x="39" y="506" type="line"/>
			<point x="222" y="255" type="line"/>
			<point x="34" y="0" type="line"/>
			<point x="58" y="0" type="line"/>
			<point x="234" y="239" type="line"/>
			<point x="236" y="239" type="line"/>
			<point x="412" y="0" type="line"/>
			<point x="468" y="0" type="line"/>
		</contour>
	</outline>
</glyph>
<glyph name="uni04B4" format="2">
	<advance width="879"/>
	<outline>
		<contour>
			<point x="807" y="-150" type="line"/>
			<point x="829" y="-150" type="line"/>
			<point x="829" y="20" type="line"/>
			<point x="741" y="20" type="line"/>
			<point x="741" y="698" type="line"/>
			<point x="719" y="698" type="line"/>
			<point x="719" y="20" type="line"/>
			<point x="291" y="20" type="line"/>
			<point x="291" y="678" type="line"/>
			<point x="543" y="678" type="line"/>
			<point x="543" y="698" type="line"/>
			<point x="17" y="698" type="line"/>
			<point x="17" y="678" type="line"/>
			<point x="269" y="678" type="line"/>
			<point x="269" y="0" type="line"/>
			<point x="807" y="0" type="line"/>
		</contour>
	</outline>
</glyph>
<glyph name="uni04B5" format="2">
	<advance width="715"/>
	<outline>
		<contour>
			<point x="649" y="-140" type="line"/>
			<point x="670" y="-140" type="line"/>
			<point x="670" y="19" type="line"/>
			<point x="595" y="19" type="line"/>
			<point x="595" y="506" type="line"/>
			<point x="574" y="506" type="line"/>
			<point x="574" y="19" type="line"/>
			<point x="250" y="19" type="line"/>
			<point x="250" y="487" type="line"/>
			<point x="444" y="487" type="line"/>
			<point x="444" y="506" type="line"/>
			<point x="35" y="506" type="line"/>
			<point x="35" y="487" type="line"/>
			<point x="229" y="487" type="line"/>
			<point x="229" y="0" type="line"/>
			<point x="649" y="0" type="line"/>
		</contour>
	</outline>
</glyph>
<glyph name="uni04BA" format="2">
	<advance width="621"/>
	<outline>
		<contour>
			<point x="108" y="0" type="line"/>
			<point x="130" y="0" type="line"/>
			<point x="130" y="372" type="line"/>
			<point x="176" y="390"/>
			<point x="238" y="401"/>
			<point x="316" y="401" type="curve" smooth="yes"/>
			<point x="456" y="401"/>
			<point x="531" y="339"/>
			<point x="531" y="191" type="curve" smooth="yes"/>
			<point x="531" y="0" type="line"/>
			<point x="553" y="0" type="line"/>
			<point x="553" y="191" type="line" smooth="yes"/>
			<point x="553" y="347"/>
			<point x="478" y="421"/>
			<point x="318" y="421" type="curve" smooth="yes"/>
			<point x="241" y="421"/>
			<point x="179" y="410"/>
			<point x="135" y="393" type="curve"/>
			<point x="130" y="393" type="line"/>
			<point x="130" y="698" type="line"/>
			<point x="108" y="698" type="line"/>
		</contour>
	</outline>
</glyph>
<glyph name="uni04BD" format="2">
	<advance width="592"/>
	<outline>
		<contour>
			<point x="331" y="-12" type="curve" smooth="yes"/>
			<point x="428" y="-12"/>
			<point x="494" y="41"/>
			<point x="524" y="124" type="curve"/>
			<point x="506" y="131" type="line"/>
			<point x="475" y="49"/>
			<point x="416" y="7"/>
			<point x="331" y="7" type="curve" smooth="yes"/>
			<point x="211" y="7"/>
			<point x="142" y="93"/>
			<point x="142" y="229" type="curve" smooth="yes"/>
			<point x="142" y="256" type="line"/>
			<point x="532" y="256" type="line"/>
			<point x="532" y="266" type="line" smooth="yes"/>
			<point x="532" y="421"/>
			<point x="449" y="518"/>
			<point x="327" y="518" type="curve" smooth="yes"/>
			<point x="203" y="518"/>
			<point x="125" y="434"/>
			<point x="119" y="275" type="curve"/>
			<point x="45" y="275" type="line"/>
			<point x="45" y="376" type="line"/>
			<point x="25" y="376" type="line"/>
			<point x="25" y="286" type="line" smooth="yes"/>
			<point x="25" y="266"/>
			<point x="34" y="256"/>
			<point x="54" y="256" type="curve" smooth="yes"/>
			<point x="119" y="256" type="line"/>
			<point x="119" y="76"/>
			<point x="199" y="-12"/>
		</contour>
		<contour>
			<point x="327" y="499" type="curve" smooth="yes"/>
			<point x="436" y="499"/>
			<point x="509" y="412"/>
			<point x="509" y="279" type="curve" smooth="yes"/>
			<point x="509" y="275" type="line"/>
			<point x="142" y="275" type="line"/>
			<point x="142" y="277" type="line" smooth="yes"/>
			<point x="142" y="413"/>
			<point x="209" y="499"/>
		</contour>
	</outline>
</glyph>
<glyph name="uni04E0" format="2">
	<advance width="575"/>
	<outline>
		<contour>
			<point x="281" y="-12" type="curve" smooth="yes"/>
			<point x="395" y="-12"/>
			<point x="503" y="60"/>
			<point x="503" y="192" type="curve" smooth="yes"/>
			<point x="503" y="296"/>
			<point x="437" y="396"/>
			<point x="284" y="396" type="curve" smooth="yes"/>
			<point x="193" y="396" type="line"/>
			<point x="209" y="384" type="line"/>
			<point x="209" y="399" type="line"/>
			<point x="489" y="677" type="line"/>
			<point x="489" y="698" type="line"/>
			<point x="82" y="698" type="line"/>
			<point x="82" y="678" type="line"/>
			<point x="386" y="678" type="line"/>
			<point x="462" y="680" type="line"/>
			<point x="462" y="677" type="line"/>
			<point x="179" y="396" type="line"/>
			<point x="179" y="376" type="line"/>
			<point x="282" y="376" type="line" smooth="yes"/>
			<point x="409" y="376"/>
			<point x="479" y="299"/>
			<point x="479" y="204" type="curve" smooth="yes"/>
			<point x="479" y="175" type="line" smooth="yes"/>
			<point x="479" y="82"/>
			<point x="387" y="8"/>
			<point x="284" y="8" type="curve" smooth="yes"/>
			<point x="193" y="8"/>
			<point x="119" y="42"/>
			<point x="78" y="116" type="curve"/>
			<point x="60" y="104" type="line"/>
			<point x="101" y="31"/>
			<point x="175" y="-12"/>
		</contour>
	</outline>
</glyph>
<glyph name="uni04E8" format="2">
	<advance width="680"/>
	<anchor x="340" y="0" name="bottom"/>
	<anchor x="340" y="698" name="top"/>
	<outline>
		<contour>
			<point x="340" y="-12" type="curve" smooth="yes"/>
			<point x="513" y="-12"/>
			<point x="610" y="109"/>
			<point x="610" y="349" type="curve" smooth="yes"/>
			<point x="610" y="589"/>
			<point x="513" y="710"/>
			<point x="340" y="710" type="curve" smooth="yes"/>
			<point x="167" y="710"/>
			<point x="70" y="589"/>
			<point x="70" y="349" type="curve" smooth="yes"/>
			<point x="70" y="109"/>
			<point x="167" y="-12"/>
		</contour>
		<contour>
			<point x="340" y="8" type="curve" smooth="yes"/>
			<point x="187" y="8"/>
			<point x="94" y="117"/>
			<point x="94" y="328" type="curve" smooth="yes"/>
			<point x="94" y="352" type="line"/>
			<point x="82" y="344" type="line"/>
			<point x="599" y="344" type="line"/>
			<point x="586" y="351" type="line"/>
			<point x="586" y="328" type="line" smooth="yes"/>
			<point x="586" y="117"/>
			<point x="493" y="8"/>
		</contour>
		<contour>
			<point x="340" y="690" type="curve" smooth="yes"/>
			<point x="493" y="690"/>
			<point x="586" y="581"/>
			<point x="586" y="370" type="curve" smooth="yes"/>
			<point x="586" y="355" type="line"/>
			<point x="600" y="364" type="line"/>
			<point x="85" y="364" type="line"/>
			<point x="94" y="358" type="line"/>
			<point x="94" y="370" type="line" smooth="yes"/>
			<point x="94" y="581"/>
			<point x="187" y="690"/>
		</contour>
	</outline>
</glyph>
<glyph name="uni04F7" format="2">
	<advance width="442"/>
	<outline>
		<contour>
			<point x="105" y="0" type="line"/>
			<point x="180" y="0" type="line"/>
			<point x="180" y="-140" type="line"/>
			<point x="201" y="-140" type="line"/>
			<point x="201" y="19" type="line"/>
			<point x="126" y="19" type="line"/>
			<point x="126" y="487" type="line"/>
			<point x="402" y="487" type="line"/>
			<point x="402" y="506" type="line"/>
			<point x="105" y="506" type="line"/>
		</contour>
	</outline>
</glyph>
